<svg width="94" height="94" viewBox="0 0 94 94" fill="none" xmlns="http://www.w3.org/2000/svg">
<path d="M49.764 44.2344C52.697 44.2344 55.5098 45.3995 57.5837 47.4734C59.6576 49.5473 60.8227 52.3601 60.8227 55.2931V63.587C60.8227 74.9442 49.2775 82.9396 30.4114 82.9396C11.5453 82.9396 0 74.9442 0 63.587V55.2931C0 52.3601 1.16511 49.5473 3.23901 47.4734C5.31291 45.3995 8.12573 44.2344 11.0587 44.2344H49.764Z" fill="url(#paint0_linear)"/>
<path d="M68.8181 69.7467C67.7122 69.5089 66.6063 69.4591 65.5336 69.5642C65.9594 68.0823 66.2193 66.5286 66.3133 64.9085L66.352 63.587V55.2931C66.352 51.4668 65.0581 47.9391 62.8796 45.1357L62.122 44.2344H73.4572L71.3505 49.2108L71.0409 50.0457L71.0022 50.184C70.3734 52.2146 70.3217 54.3802 70.8529 56.4385C71.3841 58.4969 72.4772 60.3669 74.0101 61.8398L76.6642 64.3556C76.2817 65.5664 75.7623 66.7295 75.116 67.8225C74.4556 68.9664 73.6692 70.0329 72.7715 71.0018L69.8244 70.0176L68.9729 69.7854L68.8181 69.7522V69.7467Z" fill="url(#paint1_linear)"/>
<path d="M30.4114 0C32.9528 -3.787e-08 35.4693 0.500568 37.8173 1.47313C40.1653 2.44568 42.2987 3.87118 44.0958 5.66824C45.8928 7.46529 47.3183 9.5987 48.2909 11.9467C49.2635 14.2946 49.764 16.8112 49.764 19.3526C49.764 21.894 49.2635 24.4105 48.2909 26.7585C47.3183 29.1064 45.8928 31.2398 44.0958 33.0369C42.2987 34.8339 40.1653 36.2595 37.8173 37.232C35.4693 38.2046 32.9528 38.7051 30.4114 38.7051C25.2787 38.7051 20.3563 36.6662 16.7269 33.0369C13.0976 29.4076 11.0587 24.4852 11.0587 19.3526C11.0587 14.2199 13.0976 9.29755 16.7269 5.66824C20.3563 2.03893 25.2787 7.6482e-08 30.4114 0Z" fill="url(#paint2_linear)"/>
<path d="M69.1167 11.0586C72.7829 11.0586 76.2989 12.515 78.8913 15.1073C81.4837 17.6997 82.9401 21.2157 82.9401 24.8819C82.9401 28.548 81.4837 32.064 78.8913 34.6564C76.2989 37.2488 72.7829 38.7051 69.1167 38.7051C65.4505 38.7051 61.9345 37.2488 59.3421 34.6564C56.7498 32.064 55.2934 28.548 55.2934 24.8819C55.2934 21.2157 56.7498 17.6997 59.3421 15.1073C61.9345 12.515 65.4505 11.0586 69.1167 11.0586Z" fill="url(#paint3_linear)"/>
<path d="M76.4985 51.2291L78.7047 46.026C79.7387 43.5821 82.2158 42.255 84.6487 42.7637L85.1685 42.8964L87.9331 43.7811C90.6757 44.6603 92.7713 47.0047 93.4514 49.9518C95.0605 56.9575 93.1307 65.4892 87.6512 75.5415C82.1826 85.5827 76.1944 91.6152 69.6753 93.6499C67.1428 94.4406 64.4224 93.8711 62.3765 92.1515L61.8402 91.6539L59.7391 89.5472C58.8563 88.6385 58.2861 87.4721 58.1111 86.2174C57.9361 84.9626 58.1655 83.6848 58.7659 82.5692L59.0755 82.0605L62.2383 77.4159C62.8134 76.5391 63.6382 75.8549 64.6061 75.4518C65.5741 75.0486 66.6407 74.9451 67.6681 75.1544L68.2211 75.3037L74.0656 77.2555C76.3934 75.4862 78.3397 73.2745 79.8935 70.5927C81.2261 68.2981 82.1052 65.9758 82.5089 63.6203L82.6747 62.437L77.8145 57.82C77.03 57.0556 76.4723 56.089 76.203 55.0273C75.9336 53.9656 75.9632 52.8501 76.2884 51.8042L76.4929 51.2291H76.4985Z" fill="url(#paint4_linear)"/>
<defs>
<linearGradient id="paint0_linear" x1="90.1892" y1="66.3529" x2="15.2432" y2="66.3529" gradientUnits="userSpaceOnUse">
<stop stop-color="#3CECF5"/>
<stop offset="1" stop-color="#46AEF7"/>
</linearGradient>
<linearGradient id="paint1_linear" x1="90.1892" y1="66.3529" x2="15.2432" y2="66.3529" gradientUnits="userSpaceOnUse">
<stop stop-color="#3CECF5"/>
<stop offset="1" stop-color="#46AEF7"/>
</linearGradient>
<linearGradient id="paint2_linear" x1="90.1892" y1="66.3529" x2="15.2432" y2="66.3529" gradientUnits="userSpaceOnUse">
<stop stop-color="#3CECF5"/>
<stop offset="1" stop-color="#46AEF7"/>
</linearGradient>
<linearGradient id="paint3_linear" x1="90.1892" y1="66.3529" x2="15.2432" y2="66.3529" gradientUnits="userSpaceOnUse">
<stop stop-color="#3CECF5"/>
<stop offset="1" stop-color="#46AEF7"/>
</linearGradient>
<linearGradient id="paint4_linear" x1="90.1892" y1="66.3529" x2="15.2432" y2="66.3529" gradientUnits="userSpaceOnUse">
<stop stop-color="#3CECF5"/>
<stop offset="1" stop-color="#46AEF7"/>
</linearGradient>
</defs>
</svg>
