<svg width="94" height="94" viewBox="0 0 94 94" fill="none" xmlns="http://www.w3.org/2000/svg">
<path d="M15.4715 50.5057L24.5295 59.5685L31.5461 52.5521L22.4781 43.4993L29.4847 36.4928L38.5477 45.5506L45.5543 38.5442L36.5012 29.4814L43.5078 22.475L52.556 31.5427L59.5676 24.5314L50.5046 15.4735L64.5227 1.46068C65.452 0.531752 66.7121 0.00991055 68.026 0.00991055C69.34 0.00991055 70.6001 0.531752 71.5293 1.46068L92.5492 22.48C93.4781 23.4092 94 24.6693 94 25.9832C94 27.2971 93.4781 28.5572 92.5492 29.4864L29.4847 92.5492C28.5555 93.4782 27.2953 94 25.9814 94C24.6675 94 23.4073 93.4782 22.4781 92.5492L1.45824 71.5299C0.52929 70.6007 0.0074334 69.3406 0.0074334 68.0267C0.0074334 66.7128 0.52929 65.4527 1.45824 64.5235L15.4715 50.5057ZM57.5161 78.5314L78.5409 57.5121L91.6028 70.5736V91.5979H70.5829L57.5161 78.5314ZM15.4715 36.4879L1.45329 22.475C0.992571 22.0148 0.627083 21.4683 0.377718 20.8668C0.128352 20.2653 0 19.6205 0 18.9693C0 18.3182 0.128352 17.6734 0.377718 17.0718C0.627083 16.4703 0.992571 15.9238 1.45329 15.4636L15.4715 1.45077C16.4007 0.521842 17.6608 0 18.9748 0C20.2887 0 21.5489 0.521842 22.4781 1.45077L36.5012 15.4636L15.4715 36.4879Z" fill="url(#paint0_linear)"/>
<defs>
<linearGradient id="paint0_linear" x1="90.1892" y1="66.3529" x2="15.2432" y2="66.3529" gradientUnits="userSpaceOnUse">
<stop stop-color="#3CECF5"/>
<stop offset="1" stop-color="#46AEF7"/>
</linearGradient>
</defs>
</svg>
