<svg width="94" height="68" viewBox="0 0 94 68" fill="none" xmlns="http://www.w3.org/2000/svg">
<path d="M8.54545 0C6.27906 0 4.10549 0.895533 2.50291 2.48959C0.900322 4.08365 0 6.24566 0 8.5V55.25H8.54545C8.54545 58.6315 9.89594 61.8745 12.2998 64.2656C14.7037 66.6567 17.964 68 21.3636 68C24.7632 68 28.0236 66.6567 30.4275 64.2656C32.8313 61.8745 34.1818 58.6315 34.1818 55.25H59.8182C59.8182 58.6315 61.1687 61.8745 63.5725 64.2656C65.9764 66.6567 69.2368 68 72.6364 68C76.036 68 79.2963 66.6567 81.7002 64.2656C84.1041 61.8745 85.4546 58.6315 85.4546 55.25H94V34L81.1818 17H68.3636V0H8.54545ZM38.4545 8.5L55.5455 25.5L38.4545 42.5V29.75H12.8182V21.25H38.4545V8.5ZM68.3636 23.375H79.0455L87.4627 34H68.3636V23.375ZM21.3636 48.875C23.0634 48.875 24.6936 49.5466 25.8955 50.7422C27.0975 51.9377 27.7727 53.5592 27.7727 55.25C27.7727 56.9408 27.0975 58.5623 25.8955 59.7578C24.6936 60.9533 23.0634 61.625 21.3636 61.625C19.6638 61.625 18.0337 60.9533 16.8317 59.7578C15.6298 58.5623 14.9545 56.9408 14.9545 55.25C14.9545 53.5592 15.6298 51.9377 16.8317 50.7422C18.0337 49.5466 19.6638 48.875 21.3636 48.875ZM72.6364 48.875C74.3362 48.875 75.9663 49.5466 77.1683 50.7422C78.3702 51.9377 79.0455 53.5592 79.0455 55.25C79.0455 56.9408 78.3702 58.5623 77.1683 59.7578C75.9663 60.9533 74.3362 61.625 72.6364 61.625C70.9366 61.625 69.3064 60.9533 68.1045 59.7578C66.9025 58.5623 66.2273 56.9408 66.2273 55.25C66.2273 53.5592 66.9025 51.9377 68.1045 50.7422C69.3064 49.5466 70.9366 48.875 72.6364 48.875Z" fill="url(#paint0_linear)"/>
<defs>
<linearGradient id="paint0_linear" x1="90.1892" y1="48" x2="15.2432" y2="48" gradientUnits="userSpaceOnUse">
<stop stop-color="#3CECF5"/>
<stop offset="1" stop-color="#46AEF7"/>
</linearGradient>
</defs>
</svg>
