<svg width="109" height="81" viewBox="0 0 109 81" fill="none" xmlns="http://www.w3.org/2000/svg">
<path d="M102.188 47.25C102.188 30.3223 91.6963 15.8372 76.8131 9.78328L68.125 27V3.375C68.125 2.47989 67.7661 1.62145 67.1273 0.988515C66.4885 0.35558 65.6221 0 64.7188 0H44.2812C43.3779 0 42.5115 0.35558 41.8727 0.988515C41.2339 1.62145 40.875 2.47989 40.875 3.375V27L32.1869 9.78328C17.3037 15.8372 6.8125 30.3223 6.8125 47.25V60.75H102.188V47.25ZM105.594 67.5H3.40625C2.50286 67.5 1.63646 67.8556 0.997668 68.4885C0.358872 69.1214 0 69.9799 0 70.875V77.625C0 78.5201 0.358872 79.3786 0.997668 80.0115C1.63646 80.6444 2.50286 81 3.40625 81H105.594C106.497 81 107.364 80.6444 108.002 80.0115C108.641 79.3786 109 78.5201 109 77.625V70.875C109 69.9799 108.641 69.1214 108.002 68.4885C107.364 67.8556 106.497 67.5 105.594 67.5Z" fill="url(#paint0_linear)"/>
<defs>
<linearGradient id="paint0_linear" x1="104.581" y1="57.1765" x2="17.6757" y2="57.1765" gradientUnits="userSpaceOnUse">
<stop stop-color="#3CECF5"/>
<stop offset="1" stop-color="#46AEF7"/>
</linearGradient>
</defs>
</svg>
