<svg width="223" height="223" viewBox="0 0 223 223" fill="none" xmlns="http://www.w3.org/2000/svg">
<rect width="223" height="223" rx="12" fill="url(#paint0_linear)"/>
<path d="M59.1132 32C50.7254 32 44 38.7386 44 47.1429V168.286C44 172.302 45.5923 176.153 48.4266 178.993C51.2608 181.833 55.1049 183.429 59.1132 183.429H89.3396V168.967L105.133 153.143H59.1132V138H120.246L135.359 122.857H59.1132V107.714H150.473L164.906 93.2529V77.4286L119.566 32H59.1132ZM112.009 43.3571L153.571 85H112.009V43.3571ZM166.039 115.286C165.48 115.273 164.924 115.374 164.405 115.583C163.885 115.791 163.413 116.102 163.017 116.497L155.309 124.22L171.102 139.969L178.81 132.321C180.397 130.656 180.397 127.93 178.81 126.34L168.986 116.497C168.6 116.109 168.141 115.802 167.635 115.594C167.129 115.386 166.586 115.281 166.039 115.286ZM150.85 128.687L104.453 175.251V191H120.171L166.644 144.436L150.85 128.687Z" fill="white"/>
<defs>
<linearGradient id="paint0_linear" x1="289" y1="-68" x2="91.5" y2="136" gradientUnits="userSpaceOnUse">
<stop stop-color="#16D9E3"/>
<stop offset="0.47" stop-color="#30C7EC"/>
<stop offset="1" stop-color="#46AEF7"/>
</linearGradient>
</defs>
</svg>
