<svg width="22" height="21" viewBox="0 0 22 21" fill="none" xmlns="http://www.w3.org/2000/svg">
<path d="M3.68225 15.3218C3.82497 15.4683 3.93433 15.6453 4.00254 15.84C4.07076 16.0347 4.09614 16.2424 4.07687 16.4484C3.98024 17.4013 3.79703 18.343 3.52962 19.2612C5.44775 18.807 6.61925 18.2809 7.15138 18.0053C7.45319 17.8489 7.80077 17.8119 8.12762 17.9012C9.0646 18.1567 10.0303 18.2853 11 18.2838C16.4945 18.2838 20.625 14.3359 20.625 9.8451C20.625 5.35574 16.4945 1.40644 11 1.40644C5.5055 1.40644 1.375 5.35574 1.375 9.8451C1.375 11.9098 2.22338 13.8253 3.68225 15.3218ZM3.00437 20.814C2.67859 20.88 2.35176 20.9405 2.024 20.9954C1.749 21.0404 1.54 20.7478 1.64863 20.4862C1.77071 20.1917 1.88262 19.8929 1.98412 19.5903L1.98825 19.5763C2.32925 18.5636 2.607 17.3991 2.70875 16.3147C1.02163 14.5848 0 12.3204 0 9.8451C0 4.40779 4.92525 0 11 0C17.0748 0 22 4.40779 22 9.8451C22 15.2824 17.0748 19.6902 11 19.6902C9.91052 19.6917 8.82556 19.547 7.77287 19.2598C7.05787 19.6297 5.51925 20.3034 3.00437 20.814Z" fill="#036EB7"/>
<path d="M5.5 6.32899C5.5 6.14249 5.57243 5.96362 5.70136 5.83174C5.8303 5.69986 6.00516 5.62577 6.1875 5.62577H15.8125C15.9948 5.62577 16.1697 5.69986 16.2986 5.83174C16.4276 5.96362 16.5 6.14249 16.5 6.32899C16.5 6.5155 16.4276 6.69437 16.2986 6.82625C16.1697 6.95813 15.9948 7.03222 15.8125 7.03222H6.1875C6.00516 7.03222 5.8303 6.95813 5.70136 6.82625C5.57243 6.69437 5.5 6.5155 5.5 6.32899ZM5.5 9.8451C5.5 9.6586 5.57243 9.47973 5.70136 9.34785C5.8303 9.21597 6.00516 9.14188 6.1875 9.14188H15.8125C15.9948 9.14188 16.1697 9.21597 16.2986 9.34785C16.4276 9.47973 16.5 9.6586 16.5 9.8451C16.5 10.0316 16.4276 10.2105 16.2986 10.3424C16.1697 10.4742 15.9948 10.5483 15.8125 10.5483H6.1875C6.00516 10.5483 5.8303 10.4742 5.70136 10.3424C5.57243 10.2105 5.5 10.0316 5.5 9.8451ZM5.5 13.3612C5.5 13.1747 5.57243 12.9958 5.70136 12.864C5.8303 12.7321 6.00516 12.658 6.1875 12.658H11.6875C11.8698 12.658 12.0447 12.7321 12.1736 12.864C12.3026 12.9958 12.375 13.1747 12.375 13.3612C12.375 13.5477 12.3026 13.7266 12.1736 13.8585C12.0447 13.9903 11.8698 14.0644 11.6875 14.0644H6.1875C6.00516 14.0644 5.8303 13.9903 5.70136 13.8585C5.57243 13.7266 5.5 13.5477 5.5 13.3612Z" fill="#036EB7"/>
</svg>
