<svg width="17" height="21" viewBox="0 0 17 21" fill="none" xmlns="http://www.w3.org/2000/svg">
<path d="M16.3576 5.26406L11.2897 0.220313C11.1484 0.0796875 10.9576 0 10.7575 0H0.753588C0.33676 0 0 0.335156 0 0.75V20.25C0 20.6648 0.33676 21 0.753588 21H15.8254C16.2422 21 16.5789 20.6648 16.5789 20.25V5.79609C16.5789 5.59687 16.4989 5.40469 16.3576 5.26406ZM14.841 6.14062H10.4089V1.72969L14.841 6.14062ZM14.8834 19.3125H1.69557V1.6875H8.80757V6.75C8.80757 7.01107 8.91177 7.26145 9.09726 7.44606C9.28275 7.63066 9.53433 7.73438 9.79665 7.73438H14.8834V19.3125ZM8.10108 12.9844H3.76794C3.66432 12.9844 3.57955 13.0688 3.57955 13.1719V14.2969C3.57955 14.4 3.66432 14.4844 3.76794 14.4844H8.10108C8.20469 14.4844 8.28947 14.4 8.28947 14.2969V13.1719C8.28947 13.0688 8.20469 12.9844 8.10108 12.9844ZM3.57955 9.98438V11.1094C3.57955 11.2125 3.66432 11.2969 3.76794 11.2969H12.811C12.9146 11.2969 12.9994 11.2125 12.9994 11.1094V9.98438C12.9994 9.88125 12.9146 9.79688 12.811 9.79688H3.76794C3.66432 9.79688 3.57955 9.88125 3.57955 9.98438Z" fill="#036EB7"/>
</svg>
