<svg width="60" height="60" viewBox="0 0 60 60" fill="none" xmlns="http://www.w3.org/2000/svg">
<path d="M30 60C13.431 60 0 46.569 0 30C0 13.431 13.431 0 30 0C46.569 0 60 13.431 60 30C60 46.569 46.569 60 30 60ZM19.5 36V42H27V48H33V42H36C37.9891 42 39.8968 41.2098 41.3033 39.8033C42.7098 38.3968 43.5 36.4891 43.5 34.5C43.5 32.5109 42.7098 30.6032 41.3033 29.1967C39.8968 27.7902 37.9891 27 36 27H24C23.6022 27 23.2206 26.842 22.9393 26.5607C22.658 26.2794 22.5 25.8978 22.5 25.5C22.5 25.1022 22.658 24.7206 22.9393 24.4393C23.2206 24.158 23.6022 24 24 24H40.5V18H33V12H27V18H24C22.0109 18 20.1032 18.7902 18.6967 20.1967C17.2902 21.6032 16.5 23.5109 16.5 25.5C16.5 27.4891 17.2902 29.3968 18.6967 30.8033C20.1032 32.2098 22.0109 33 24 33H36C36.3978 33 36.7794 33.158 37.0607 33.4393C37.342 33.7206 37.5 34.1022 37.5 34.5C37.5 34.8978 37.342 35.2794 37.0607 35.5607C36.7794 35.842 36.3978 36 36 36H19.5Z" fill="#036EB7"/>
</svg>
