<svg width="58" height="60" viewBox="0 0 58 60" fill="none" xmlns="http://www.w3.org/2000/svg">
<path d="M55.919 31.5836C57.1329 29.9673 57.8049 27.9869 57.8049 25.9265C57.8049 22.6575 55.9912 19.5632 53.0721 17.8377C52.3206 17.3935 51.465 17.1598 50.5937 17.1606H33.2667L33.7002 8.21264C33.8014 6.05028 33.0427 3.99714 31.5687 2.4318C30.8453 1.66025 29.9726 1.04638 29.0044 0.628122C28.0363 0.209864 26.9933 -0.00389525 25.9399 5.37325e-05C22.1826 5.37325e-05 18.8588 2.54829 17.8617 6.1959L11.6549 28.8388H11.6332V60H45.7598C46.4245 60 47.0748 59.8689 47.6746 59.6068C51.114 58.1289 53.3322 54.7434 53.3322 50.9865C53.3322 50.0692 53.2022 49.1664 52.942 48.2927C54.1559 46.6764 54.8279 44.696 54.8279 42.6356C54.8279 41.7183 54.6979 40.8154 54.4377 39.9418C55.6516 38.3255 56.3236 36.3451 56.3236 34.2847C56.3092 33.3673 56.1791 32.4573 55.919 31.5836ZM0 31.1686V57.6702C0 58.9589 1.03326 60 2.3122 60H7.00884V28.8388H2.3122C1.03326 28.8388 0 29.8799 0 31.1686Z" fill="#036EB7"/>
</svg>
