<svg width="62" height="60" viewBox="0 0 62 60" fill="none" xmlns="http://www.w3.org/2000/svg">
<path fill-rule="evenodd" clip-rule="evenodd" d="M30.9926 45.4319C25.3978 45.4319 19.7137 42.2104 16.3964 37.9464C0.481105 37.9464 0 60 0 60H61.9813C61.9813 60 63.2306 37.8486 45.3326 37.8486C42.0192 42.1652 36.5874 45.4319 30.9926 45.4319Z" fill="#036EB7"/>
<path fill-rule="evenodd" clip-rule="evenodd" d="M44.3239 18.9939C44.3239 25.339 38.3527 37.4722 30.9809 37.4722C23.6208 37.4722 17.6457 25.3353 17.6457 18.9939C17.6457 12.6526 23.6169 7.50423 30.9809 7.50423C38.3527 7.508 44.3239 12.6563 44.3239 18.9939Z" fill="#036EB7"/>
<path fill-rule="evenodd" clip-rule="evenodd" d="M50.2756 13.5182C50.2756 12.3289 48.5685 11.3693 46.4501 11.3617V8.91175C46.4501 8.5467 46.5936 0 31.0275 0C15.4691 0 15.6127 8.5467 15.6127 8.91175V11.4483C15.5739 11.4483 15.5428 11.437 15.5079 11.437C13.4011 11.437 11.7056 12.3816 11.7056 13.552V23.9165C11.7056 25.0793 13.405 26.0277 15.5079 26.0277C17.6108 26.0277 19.318 25.0793 19.318 23.9165V13.552C19.318 13.3902 19.2132 13.2434 19.1511 13.0929V10.2666C19.1511 10.0069 18.0337 3.55642 31.0275 3.55642C44.0251 3.55642 42.6749 10.0069 42.6749 10.2666V13.2434C42.6516 13.3375 42.5779 13.4203 42.5779 13.5182V24.1197C42.5779 25.3127 44.2967 26.2799 46.4268 26.2799C46.4733 26.2799 46.5082 26.2648 46.5548 26.2648V30.1374H42.737V33.7879H50.3144L50.2756 13.5182Z" fill="#036EB7"/>
</svg>
