<svg width="45" height="45" viewBox="0 0 45 45" fill="none" xmlns="http://www.w3.org/2000/svg">
<path d="M39.9736 21.322H44.6763C44.6763 9.25953 35.5696 0.162155 23.4907 0.162155V4.86486C33.0419 4.86486 39.9736 11.7849 39.9736 21.322Z" fill="white"/>
<path d="M23.5142 14.2703C28.4591 14.2703 30.5682 16.3794 30.5682 21.3243H35.2709C35.2709 13.7412 31.0973 9.56756 23.5142 9.56756V14.2703ZM31.5605 27.0687C31.1087 26.658 30.515 26.439 29.9047 26.4579C29.2944 26.4767 28.7154 26.732 28.2898 27.1698L22.663 32.9565C21.3086 32.6978 18.5857 31.849 15.7829 29.0532C12.9801 26.2481 12.1313 23.5181 11.8797 22.1732L17.6617 16.544C18.1 16.1187 18.3556 15.5396 18.3745 14.9291C18.3934 14.3187 18.174 13.7248 17.7628 13.2733L9.07453 3.71975C8.66314 3.26678 8.09138 2.99202 7.48067 2.95382C6.86996 2.91562 6.26842 3.117 5.8038 3.51518L0.701366 7.89105C0.294843 8.29904 0.0522035 8.84205 0.0194738 9.41707C-0.0157965 10.0049 -0.688283 23.9296 10.1091 34.7317C19.5286 44.1489 31.3277 44.8378 34.5773 44.8378C35.0523 44.8378 35.3438 44.8237 35.4214 44.819C35.9964 44.7868 36.5391 44.5431 36.9451 44.1348L41.3186 39.03C41.7171 38.5657 41.9189 37.9643 41.8811 37.3536C41.8433 36.7429 41.569 36.171 41.1164 35.7593L31.5605 27.0687Z" fill="white"/>
</svg>
