<svg width="27" height="34" viewBox="0 0 27 34" fill="none" xmlns="http://www.w3.org/2000/svg">
<path d="M13.5 10.2V0H3.375C2.47989 0 1.62145 0.358213 0.988514 0.995837C0.355579 1.63346 0 2.49826 0 3.4V30.6C0 31.5017 0.355579 32.3665 0.988514 33.0042C1.62145 33.6418 2.47989 34 3.375 34H23.625C24.5201 34 25.3785 33.6418 26.0115 33.0042C26.6444 32.3665 27 31.5017 27 30.6V13.6H16.875C15.9799 13.6 15.1215 13.2418 14.4885 12.6042C13.8556 11.9665 13.5 11.1017 13.5 10.2ZM5.0625 17.425C5.0625 17.0868 5.19584 16.7625 5.43319 16.5234C5.67054 16.2843 5.99246 16.15 6.32812 16.15C6.66379 16.15 6.98571 16.2843 7.22306 16.5234C7.46041 16.7625 7.59375 17.0868 7.59375 17.425C7.59375 17.7632 7.46041 18.0875 7.22306 18.3266C6.98571 18.5657 6.66379 18.7 6.32812 18.7C5.99246 18.7 5.67054 18.5657 5.43319 18.3266C5.19584 18.0875 5.0625 17.7632 5.0625 17.425ZM5.0625 22.525C5.0625 22.1868 5.19584 21.8625 5.43319 21.6234C5.67054 21.3843 5.99246 21.25 6.32812 21.25C6.66379 21.25 6.98571 21.3843 7.22306 21.6234C7.46041 21.8625 7.59375 22.1868 7.59375 22.525C7.59375 22.8632 7.46041 23.1875 7.22306 23.4266C6.98571 23.6657 6.66379 23.8 6.32812 23.8C5.99246 23.8 5.67054 23.6657 5.43319 23.4266C5.19584 23.1875 5.0625 22.8632 5.0625 22.525ZM5.0625 27.625C5.0625 27.2868 5.19584 26.9625 5.43319 26.7234C5.67054 26.4843 5.99246 26.35 6.32812 26.35C6.66379 26.35 6.98571 26.4843 7.22306 26.7234C7.46041 26.9625 7.59375 27.2868 7.59375 27.625C7.59375 27.9632 7.46041 28.2875 7.22306 28.5266C6.98571 28.7657 6.66379 28.9 6.32812 28.9C5.99246 28.9 5.67054 28.7657 5.43319 28.5266C5.19584 28.2875 5.0625 27.9632 5.0625 27.625ZM10.125 17.425C10.125 17.0868 10.2583 16.7625 10.4957 16.5234C10.733 16.2843 11.055 16.15 11.3906 16.15H20.6719C21.0075 16.15 21.3295 16.2843 21.5668 16.5234C21.8042 16.7625 21.9375 17.0868 21.9375 17.425C21.9375 17.7632 21.8042 18.0875 21.5668 18.3266C21.3295 18.5657 21.0075 18.7 20.6719 18.7H11.3906C11.055 18.7 10.733 18.5657 10.4957 18.3266C10.2583 18.0875 10.125 17.7632 10.125 17.425ZM10.125 22.525C10.125 22.1868 10.2583 21.8625 10.4957 21.6234C10.733 21.3843 11.055 21.25 11.3906 21.25H20.6719C21.0075 21.25 21.3295 21.3843 21.5668 21.6234C21.8042 21.8625 21.9375 22.1868 21.9375 22.525C21.9375 22.8632 21.8042 23.1875 21.5668 23.4266C21.3295 23.6657 21.0075 23.8 20.6719 23.8H11.3906C11.055 23.8 10.733 23.6657 10.4957 23.4266C10.2583 23.1875 10.125 22.8632 10.125 22.525ZM10.125 27.625C10.125 27.2868 10.2583 26.9625 10.4957 26.7234C10.733 26.4843 11.055 26.35 11.3906 26.35H20.6719C21.0075 26.35 21.3295 26.4843 21.5668 26.7234C21.8042 26.9625 21.9375 27.2868 21.9375 27.625C21.9375 27.9632 21.8042 28.2875 21.5668 28.5266C21.3295 28.7657 21.0075 28.9 20.6719 28.9H11.3906C11.055 28.9 10.733 28.7657 10.4957 28.5266C10.2583 28.2875 10.125 27.9632 10.125 27.625ZM16.0312 10.2V0.85L26.1562 11.05H16.875C16.6512 11.05 16.4366 10.9604 16.2784 10.801C16.1201 10.6416 16.0312 10.4254 16.0312 10.2Z" fill="#036EB7"/>
</svg>
