<svg width="22" height="21" viewBox="0 0 22 21" fill="none" xmlns="http://www.w3.org/2000/svg">
<path d="M7.7463 14.2995L1.80456 14.2998L1.66514 14.3082C1.36355 14.344 1.08703 14.4937 0.892093 14.7266C0.697155 14.9595 0.598508 15.2581 0.616307 15.5613C0.634107 15.8645 0.76701 16.1495 0.987861 16.358C1.20871 16.5664 1.50084 16.6827 1.80456 16.6831L7.931 16.6827C7.74686 15.9026 7.68456 15.0987 7.7463 14.2995ZM19.6399 7.14975L1.80456 7.15008C1.50084 7.14975 1.20871 7.03345 0.987861 6.82495C0.76701 6.61645 0.634107 6.33149 0.616307 6.0283C0.598508 5.7251 0.697155 5.42654 0.892093 5.19364C1.08703 4.96073 1.36355 4.81105 1.66514 4.77518L1.80456 4.76684L19.6399 4.7665C19.9436 4.76684 20.2358 4.88313 20.4566 5.09163C20.6775 5.30013 20.8104 5.58509 20.8282 5.88829C20.846 6.19149 20.7473 6.49004 20.5524 6.72295C20.3574 6.95585 20.0809 7.10553 19.7793 7.14141L19.6399 7.14975ZM1.80456 11.9166L8.31709 11.9162C8.68646 11.032 9.21655 10.224 9.8805 9.533L1.80456 9.53333L1.66514 9.54168C1.36355 9.57755 1.08703 9.72723 0.892093 9.96014C0.697155 10.193 0.598508 10.4916 0.616307 10.7948C0.634107 11.098 0.76701 11.383 0.987861 11.5915C1.20871 11.7999 1.50084 11.9162 1.80456 11.9166ZM19.6399 0L1.80456 0.000336881L1.66514 0.00867822C1.36355 0.0445505 1.08703 0.194232 0.892093 0.427138C0.697155 0.660045 0.598508 0.958598 0.616307 1.2618C0.634107 1.565 0.76701 1.84996 0.987861 2.05845C1.20871 2.26695 1.50084 2.38325 1.80456 2.38359L19.6399 2.38325L19.7793 2.37491C20.0809 2.33904 20.3574 2.18935 20.5524 1.95645C20.7473 1.72354 20.846 1.42499 20.8282 1.12179C20.8104 0.81859 20.6775 0.53363 20.4566 0.325133C20.2358 0.116635 19.9436 0.000336881 19.6399 0ZM11.6298 10.6948L11.3939 9.87738C11.9182 9.42218 12.514 9.05277 13.161 8.79062L13.7557 9.41503C13.9783 9.6492 14.2462 9.83566 14.5431 9.96307C14.8401 10.0905 15.1598 10.1562 15.4829 10.1562C15.806 10.1562 16.1258 10.0905 16.4227 9.96307C16.7196 9.83566 16.9876 9.6492 17.2102 9.41503L17.7977 8.79776C18.4441 9.06321 19.0417 9.43452 19.566 9.89644L19.3444 10.6472C19.2528 10.9571 19.2253 11.2825 19.2634 11.6034C19.3015 11.9244 19.4045 12.2342 19.5662 12.5141C19.7278 12.794 19.9446 13.038 20.2035 13.2315C20.4625 13.4249 20.758 13.5637 21.0722 13.6393L21.7145 13.7942C21.8308 14.5075 21.8333 15.2347 21.7217 15.9487L21.0258 16.1203C20.7146 16.1975 20.4222 16.3366 20.1661 16.5295C19.91 16.7223 19.6954 16.9648 19.5352 17.2425C19.375 17.5202 19.2725 17.8273 19.2337 18.1456C19.195 18.4638 19.2209 18.7866 19.3098 19.0946L19.5446 19.912C19.0215 20.3684 18.4256 20.7378 17.7774 21L17.184 20.3744C16.9613 20.14 16.6933 19.9534 16.3963 19.8259C16.0992 19.6984 15.7794 19.6326 15.4561 19.6326C15.1329 19.6326 14.813 19.6984 14.5159 19.8259C14.2189 19.9534 13.9509 20.14 13.7283 20.3744L13.1408 20.9917C12.4945 20.7265 11.8969 20.3556 11.3724 19.8942L11.5952 19.1423C11.6866 18.8324 11.714 18.5071 11.6758 18.1863C11.6376 17.8655 11.5345 17.5559 11.3729 17.2761C11.2113 16.9964 10.9945 16.7524 10.7357 16.559C10.4769 16.3657 10.1815 16.2269 9.86739 16.1513L9.22391 15.9964C9.10729 15.2831 9.10487 14.5559 9.21676 13.8419L9.91267 13.6703C10.2241 13.5933 10.5167 13.4542 10.7731 13.2613C11.0294 13.0685 11.2442 12.8259 11.4045 12.548C11.5649 12.2702 11.6675 11.9629 11.7062 11.6444C11.7449 11.326 11.7189 11.003 11.6298 10.6948ZM15.4692 16.6827C16.4225 16.6827 17.1971 15.882 17.1971 14.8953C17.1971 13.9075 16.4225 13.1079 15.4692 13.1079C14.5159 13.1079 13.7414 13.9075 13.7414 14.8953C13.7414 15.882 14.5159 16.6827 15.4692 16.6827Z" fill="#036EB7"/>
</svg>
