<svg width="69" height="60" viewBox="0 0 69 60" fill="none" xmlns="http://www.w3.org/2000/svg">
<path d="M38.7398 0C22.4037 0 9.11438 13.0317 8.71746 29.2537V30.0037H0L13.2085 44.25L26.0495 30.0037H16.2295V29.2537C16.6227 17.1695 26.5493 7.50366 38.7398 7.50366C51.1839 7.50366 61.2722 17.5793 61.2722 30.0037C61.2722 42.428 51.1839 52.5036 38.7398 52.5036C33.9418 52.5065 29.2695 50.9766 25.41 48.139L20.2427 53.6414C25.5166 57.7678 32.0319 60.0075 38.7398 60C55.3331 60 68.7805 46.5732 68.7805 30.0037C68.7805 13.4341 55.3331 0 38.7398 0ZM35.0646 11.711V30.0037C35.0688 30.9731 35.4556 31.902 36.1415 32.5902L47.9019 44.2975C48.942 43.628 49.9233 42.8744 50.7943 42L42.4149 33.6622V11.711H35.0646Z" fill="#036EB7"/>
</svg>
